<svg width="24" height="24" viewBox="0 0 24 24" fill="none" xmlns="http://www.w3.org/2000/svg" stroke-width="2">
<circle cx="6" cy="18" r="4"/>
<circle cx="18" cy="18" r="4"/>
<path d="M10 18V10C10 7.79086 8.20914 6 6 6C3.79086 6 2 7.79086 2 10V18"/>
<path d="M22 18V10C22 7.79086 20.2091 6 18 6C15.7909 6 14 7.79086 14 10V18"/>
<path d="M14 10C14 8.89543 13.1046 8 12 8C10.8954 8 10 8.89543 10 10"/>
<path d="M14 17C14 15.8954 13.1046 15 12 15C10.8954 15 10 15.8954 10 17"/>
<path d="M8 6V4.86667C8 3.83574 7.10457 3 6 3C4.89543 3 4 3.83574 4 4.86667V6"/>
<path d="M20 6V4.86667C20 3.83574 19.1046 3 18 3C16.8954 3 16 3.83574 16 4.86667V6"/>
</svg>
