<svg width="24" height="24" viewBox="0 0 24 24" fill="none" xmlns="http://www.w3.org/2000/svg" stroke='black' stroke-width=2>
<circle cx="6" cy="18" r="4" />
<circle cx="18" cy="18" r="4" />
<path d="M10 16C10 16 10 10.8533 10 8.99999C10 7.1467 8.7068 6 7.22685 6C5.1889 6 4.41845 7.38502 4 8.99999C3.58155 10.615 2 16.5 2 18" />
<path d="M14 16C14 16 14 10.8533 14 8.99999C14 7.1467 15.2932 6 16.7731 6C18.8111 6 19.5816 7.38502 20 8.99999C20.4184 10.615 22 16.5 22 18" />
<path d="M14 10C14 8.89543 13.1046 8 12 8C10.8954 8 10 8.89543 10 10" />
<path d="M14 18C14 16.8954 13.1046 16 12 16C10.8954 16 10 16.8954 10 18" />
<path d="M18 7V5.25C18 3.7036 17.1046 3 16 3C14.8954 3 14 3.75 14 5.25V8" />
<path d="M6 7V5.25C6 3.7036 6.89543 3 8 3C9.10456 3 10 3.75 10 5.25V8" />
</svg>
