<svg width="461" height="64" viewBox="0 0 461 64" fill="none" xmlns="http://www.w3.org/2000/svg">
<path d="M103.443 42.454C107.632 46.23 113.355 48.708 121.733 48.708C132.294 48.708 138.725 43.693 138.725 35.02C138.725 25.934 129.108 24.046 122.618 22.925C118.429 22.217 116.836 21.686 116.836 20.152C116.836 19.149 117.485 18.087 120.435 18.087C123.562 18.087 127.987 19.385 131.409 21.981L137.781 13.544C133.297 9.886 127.515 8.057 121.084 8.057C110.287 8.057 104.741 14.134 104.741 20.801C104.741 30.654 114.653 32.188 121.143 33.368C125.037 34.076 126.689 34.843 126.689 36.377C126.689 37.911 124.565 38.678 122.323 38.678C117.013 38.678 112.588 36.436 109.638 33.604L103.443 42.454ZM152.843 48H164.761V19.031H175.263V8.647H142.282V19.031H152.843V48ZM177.988 28.353C177.988 40.448 187.369 48.708 199.523 48.708C211.677 48.708 221.058 40.448 221.058 28.353C221.058 16.258 211.677 7.998 199.523 7.998C187.369 7.998 177.988 16.258 177.988 28.353ZM208.963 28.353C208.963 33.84 205.246 38.206 199.523 38.206C193.8 38.206 190.083 33.84 190.083 28.353C190.083 22.866 193.8 18.5 199.523 18.5C205.246 18.5 208.963 22.866 208.963 28.353ZM246.288 48.708C256.908 48.708 262.159 42.454 264.46 37.203L254.194 32.483C253.191 35.551 250.123 38.206 246.288 38.206C240.86 38.206 237.025 33.84 237.025 28.353C237.025 22.866 240.86 18.5 246.288 18.5C250.123 18.5 253.191 21.155 254.194 24.223L264.46 19.444C262.1 14.016 256.908 7.998 246.288 7.998C234.252 7.998 224.93 16.199 224.93 28.353C224.93 40.448 234.252 48.708 246.288 48.708ZM292.914 48H307.428L291.911 26.937L306.779 8.647H292.206L281.881 23.397V8.647H269.963V48H281.881V37.085L284.064 34.135L292.914 48ZM311.316 48H336.037C343.943 48 347.66 42.808 347.66 37.321C347.66 32.247 344.415 28.353 340.167 27.704C344.002 26.878 346.893 23.574 346.893 18.677C346.893 14.075 343.353 8.647 335.211 8.647H311.316V48ZM323.234 23.279V18.323H332.438C333.677 18.323 334.798 19.385 334.798 20.742C334.798 22.158 333.677 23.279 332.438 23.279H323.234ZM323.234 38.324V32.955H332.792C334.503 32.955 335.565 34.253 335.565 35.669C335.565 37.144 334.503 38.324 332.792 38.324H323.234ZM354.225 48H384.079V38.088H366.143V33.073H383.666V23.161H366.143V18.559H384.079V8.647H354.225V48ZM399.578 48H411.496V19.031H421.998V8.647H389.017V19.031H399.578V48ZM424.415 42.454C428.604 46.23 434.327 48.708 442.705 48.708C453.266 48.708 459.697 43.693 459.697 35.02C459.697 25.934 450.08 24.046 443.59 22.925C439.401 22.217 437.808 21.686 437.808 20.152C437.808 19.149 438.457 18.087 441.407 18.087C444.534 18.087 448.959 19.385 452.381 21.981L458.753 13.544C454.269 9.886 448.487 8.057 442.056 8.057C431.259 8.057 425.713 14.134 425.713 20.801C425.713 30.654 435.625 32.188 442.115 33.368C446.009 34.076 447.661 34.843 447.661 36.377C447.661 37.911 445.537 38.678 443.295 38.678C437.985 38.678 433.56 36.436 430.61 33.604L424.415 42.454Z" fill="#2D263B"/>
<path d="M23.1266 0H37.9937L14.8671 39.6456H0L23.1266 0Z" fill="#FFAF75"/>
<path d="M30.8356 23.6772H45.7027L22.5761 63.3228H7.70898L30.8356 23.6772Z" fill="#FF4B4B"/>
<path d="M72.1328 23.6772H86.9999L77.9145 39.095H63.0474L72.1328 23.6772Z" fill="#2D263B"/>
<path d="M64.9747 0H79.8418L56.7152 39.6456H41.8481L64.9747 0Z" fill="#7F7192"/>
</svg>
