<svg width="120" height="17" viewBox="0 0 120 17" 
  fill="none" xmlns="http://www.w3.org/2000/svg">
<path d="M26.9448 11.283C28.036 12.2865 29.5267 12.9451 31.709 12.9451C34.4599 12.9451 36.1351 11.6123 36.1351 9.30724C36.1351 6.89245 33.6301 6.39068 31.9395 6.09275C30.8484 5.90459 30.4334 5.76347 30.4334 5.35577C30.4334 5.08921 30.6025 4.80696 31.3709 4.80696C32.1854 4.80696 33.3381 5.15193 34.2294 5.84187L35.8892 3.59957C34.7212 2.62738 33.2151 2.14129 31.54 2.14129C28.7276 2.14129 27.2829 3.75637 27.2829 5.52826C27.2829 8.14689 29.8648 8.55458 31.5553 8.86819C32.5696 9.05635 32.9999 9.2602 32.9999 9.66789C32.9999 10.0756 32.4467 10.2794 31.8627 10.2794C30.4795 10.2794 29.3269 9.68357 28.5585 8.93091L26.9448 11.283Z" 
  fill="#2d253b"/>
<path d="M39.8124 12.7569H42.9168V5.05785H45.6524V2.29809H37.0615V5.05785H39.8124V12.7569Z" 
  fill="#2d253b"/>
<path d="M46.3624 7.53535C46.3624 10.7498 48.8059 12.9451 51.9718 12.9451C55.1377 12.9451 57.5812 10.7498 57.5812 7.53535C57.5812 4.32087 55.1377 2.12561 51.9718 2.12561C48.8059 2.12561 46.3624 4.32087 46.3624 7.53535ZM54.4307 7.53535C54.4307 8.99363 53.4625 10.154 51.9718 10.154C50.4811 10.154 49.5129 8.99363 49.5129 7.53535C49.5129 6.07707 50.4811 4.91672 51.9718 4.91672C53.4625 4.91672 54.4307 6.07707 54.4307 7.53535Z" 
  fill="#2d253b"/>
<path d="M64.1531 12.9451C66.9194 12.9451 68.2872 11.283 68.8866 9.88741L66.2125 8.63298C65.9512 9.44836 65.1521 10.154 64.1531 10.154C62.7392 10.154 61.7403 8.99363 61.7403 7.53535C61.7403 6.07707 62.7392 4.91672 64.1531 4.91672C65.1521 4.91672 65.9512 5.62234 66.2125 6.43772L68.8866 5.16761C68.2718 3.72501 66.9194 2.12561 64.1531 2.12561C61.018 2.12561 58.5898 4.30519 58.5898 7.53535C58.5898 10.7498 61.018 12.9451 64.1531 12.9451Z" 
  fill="#2d253b"/>
<path d="M76.2982 12.7569H80.0788L76.0369 7.15902L79.9097 2.29809H76.1138L73.4243 6.2182V2.29809H70.3199V12.7569H73.4243V9.85605L73.9929 9.07203L76.2982 12.7569Z" 
  fill="#2d253b"/>
<path d="M81.0916 12.7569H87.5309C89.5902 12.7569 90.5584 11.3771 90.5584 9.91877C90.5584 8.57026 89.7132 7.53535 88.6067 7.36287C89.6056 7.14334 90.3587 6.26524 90.3587 4.96376C90.3587 3.74069 89.4366 2.29809 87.3157 2.29809H81.0916V12.7569ZM84.196 6.18684V4.86968H86.5934C86.9162 4.86968 87.2081 5.15193 87.2081 5.51258C87.2081 5.88891 86.9162 6.18684 86.5934 6.18684H84.196ZM84.196 10.1853V8.75842H86.6856C87.1313 8.75842 87.4079 9.10339 87.4079 9.47972C87.4079 9.87173 87.1313 10.1853 86.6856 10.1853H84.196Z" 
  fill="#2d253b"/>
<path d="M92.2684 12.7569H100.045V10.1226H95.3728V8.78978H99.9372V6.15547H95.3728V4.9324H100.045V2.29809H92.2684V12.7569Z" 
  fill="#2d253b"/>
<path d="M104.082 12.7569H107.187V5.05785H109.922V2.29809H101.331V5.05785H104.082V12.7569Z" 
  fill="#2d253b"/>
<path d="M110.552 11.283C111.643 12.2865 113.133 12.9451 115.316 12.9451C118.067 12.9451 119.742 11.6123 119.742 9.30724C119.742 6.89245 117.237 6.39068 115.546 6.09275C114.455 5.90459 114.04 5.76347 114.04 5.35577C114.04 5.08921 114.209 4.80696 114.978 4.80696C115.792 4.80696 116.945 5.15193 117.836 5.84187L119.496 3.59957C118.328 2.62738 116.822 2.14129 115.147 2.14129C112.334 2.14129 110.89 3.75637 110.89 5.52826C110.89 8.14689 113.472 8.55458 115.162 8.86819C116.176 9.05635 116.607 9.2602 116.607 9.66789C116.607 10.0756 116.053 10.2794 115.469 10.2794C114.086 10.2794 112.934 9.68357 112.165 8.93091L110.552 11.283Z" 
  fill="#2d253b"/>
<path d="M6.02402 0H9.8966L3.87258 10.5366H0L6.02402 0Z" 
  fill="#FFAF75"/>
<path d="M8.03183 6.29266H11.9044L5.8804 16.8293H2.00781L8.03183 6.29266Z" 
  fill="#FF4B4B"/>
<path d="M18.7894 6.29266H22.662L20.2954 10.3902H16.4229L18.7894 6.29266Z" 
  fill="#ABAAC6"/>
<path d="M16.9244 0H20.797L14.773 10.5366H10.9004L16.9244 0Z" 
  fill="#7F7192"/>
</svg>
